<svg width="22" height="12" viewBox="0 0 22 12" fill="none" xmlns="http://www.w3.org/2000/svg">
<path d="M21.7479 5.39162C21.7477 5.39136 21.7475 5.39106 21.7472 5.3908L17.2568 0.922061C16.9204 0.587292 16.3762 0.588538 16.0414 0.924982C15.7066 1.26138 15.7079 1.8055 16.0443 2.14031L19.0591 5.14055H0.859375C0.384742 5.14055 0 5.5253 0 5.99993C0 6.47456 0.384742 6.8593 0.859375 6.8593H19.0591L16.0443 9.85955C15.7079 10.1944 15.7066 10.7385 16.0414 11.0749C16.3763 11.4114 16.9205 11.4125 17.2568 11.0778L21.7472 6.60905C21.7475 6.60879 21.7477 6.60849 21.748 6.60824C22.0846 6.27231 22.0835 5.72643 21.7479 5.39162Z" fill="#A1D214"/>
</svg>
