<svg width="213" height="213" viewBox="0 0 213 213" fill="none" xmlns="http://www.w3.org/2000/svg">
<g filter="url(#filter0_d_4801_3)">
<circle cx="106.5" cy="106.5" r="96.5" fill="white"/>
</g>
<path d="M139.219 171C158.439 171 174 155.521 174 136.458H139.219V171Z" fill="#A1D214"/>
<path d="M86.3201 125.832V140.962C86.3201 142.481 85.1925 143.6 83.689 143.6C82.1855 143.6 81.0578 142.481 81.0578 140.962V127.897H77.1738C77.0735 135.935 75.7454 140.191 72.5881 142.481C71.5356 143.252 70.5583 143.6 69.4056 143.6C68.0023 143.6 67.0251 142.68 67.0251 141.311C67.0251 140.191 67.6265 139.37 68.6789 138.996C71.3101 138.051 72.1871 135.139 72.1871 127.375V125.782C72.1871 124.264 73.3148 123.144 74.8433 123.144H83.6639C85.1925 123.194 86.3201 124.314 86.3201 125.832Z" fill="black"/>
<path d="M110.552 141.112C110.552 142.53 109.449 143.6 107.946 143.6C106.818 143.6 105.966 142.953 105.465 141.709L105.039 140.639H97.822L97.396 141.709C96.8949 142.953 96.0429 143.6 94.9152 143.6C93.4117 143.6 92.3091 142.53 92.3091 141.112C92.3091 140.739 92.4094 140.291 92.5848 139.843L98.9246 124.563C99.3757 123.443 100.253 122.821 101.43 122.821C102.608 122.821 103.485 123.418 103.936 124.563L110.276 139.843C110.477 140.291 110.552 140.763 110.552 141.112ZM99.3757 136.483H103.485L101.43 130.61L99.3757 136.483Z" fill="black"/>
<path d="M134.833 125.458V140.962C134.833 142.481 133.706 143.6 132.202 143.6C130.699 143.6 129.571 142.481 129.571 140.962V132.327L121.452 142.481C120.851 143.252 120.099 143.6 119.247 143.6C117.769 143.6 116.616 142.456 116.616 140.962V125.458C116.616 123.94 117.744 122.821 119.247 122.821C120.751 122.821 121.878 123.94 121.878 125.458V134.293L129.521 124.463C130.198 123.617 130.799 122.796 132.252 122.796C133.731 122.821 134.833 123.965 134.833 125.458Z" fill="black"/>
<path d="M162.423 125.533V140.987C162.423 142.505 161.295 143.625 159.792 143.625C158.288 143.625 157.161 142.505 157.161 140.987V133.97L154.53 138.125C153.803 139.27 153.126 139.743 152.149 139.743C151.172 139.743 150.495 139.295 149.768 138.125L147.137 133.97V140.987C147.137 142.505 146.01 143.625 144.506 143.625C143.003 143.625 141.875 142.505 141.875 140.987V125.533C141.875 123.99 142.978 122.821 144.506 122.821C145.584 122.821 146.31 123.343 147.162 124.737L152.149 132.7L157.136 124.737C157.988 123.343 158.739 122.821 159.792 122.821C161.32 122.821 162.423 123.965 162.423 125.533Z" fill="black"/>
<path d="M113.459 100C113.459 100 113.133 114.782 126.765 119.038C126.79 119.038 130.122 108.038 113.459 100Z" fill="black"/>
<path d="M117.894 114.11C119.723 116.251 122.279 118.142 125.762 119.337C117.844 121.477 113.033 114.359 113.033 114.359C114.887 114.061 116.491 113.986 117.894 114.11Z" fill="black"/>
<path d="M73.2415 154.445C73.2415 153.08 72.2049 152.284 70.4967 152.24V151.729H70.139V152.24C68.4308 152.277 67.3942 153.08 67.3942 154.445C67.3942 155.803 68.4308 156.606 70.139 156.642V157.161H70.4967V156.642C72.2049 156.606 73.2415 155.803 73.2415 154.445ZM70.4967 156.336V152.547C71.9859 152.591 72.8765 153.27 72.8765 154.438C72.8765 155.613 71.9859 156.285 70.4967 156.336ZM67.7592 154.445C67.7592 153.262 68.6425 152.598 70.139 152.547V156.336C68.6571 156.285 67.7592 155.62 67.7592 154.445ZM80.0391 151.89H78.2068V157H78.5791V155.328H80.0391C81.3239 155.328 82.0977 154.686 82.0977 153.613C82.0977 152.532 81.3239 151.89 80.0391 151.89ZM80.0391 154.992H78.5791V152.226H80.0391C81.1341 152.226 81.7181 152.729 81.7181 153.613C81.7181 154.489 81.1341 154.992 80.0391 154.992ZM87.312 156.664V154.569H90.0349V154.241H87.312V152.226H90.3561V151.89H86.9397V157H90.4656V156.664H87.312ZM101.126 151.89V156.664H98.6148V151.89H98.2425V156.664H95.7313V151.89H95.359V157H101.498V151.89H101.126ZM117.709 157L117.701 151.89H117.395L115.11 155.839L112.825 151.89H112.511V157H112.876V152.642L115.015 156.321H115.198L117.336 152.627L117.344 157H117.709ZM127.088 157H127.49L125.139 151.89H124.767L122.416 157H122.818L123.467 155.562H126.431L127.088 157ZM123.613 155.248L124.949 152.299L126.293 155.248H123.613ZM134.033 151.89H132.201V157H132.573V155.328H134.033C135.318 155.328 136.092 154.686 136.092 153.613C136.092 152.532 135.318 151.89 134.033 151.89ZM134.033 154.992H132.573V152.226H134.033C135.128 152.226 135.712 152.729 135.712 153.613C135.712 154.489 135.128 154.992 134.033 154.992ZM144.482 157H144.92L142.832 154.379L144.788 151.89H144.372L142.54 154.241H141.306V151.89H140.934V157H141.306V154.576H142.533L144.482 157ZM149.854 156.664V154.569H152.577V154.241H149.854V152.226H152.898V151.89H149.482V157H153.008V156.664H149.854ZM161.106 151.89H157.054V152.226H158.894V157H159.266V152.226H161.106V151.89Z" fill="black"/>
<defs>
<filter id="filter0_d_4801_3" x="0" y="0" width="213" height="213" filterUnits="userSpaceOnUse" color-interpolation-filters="sRGB">
<feFlood flood-opacity="0" result="BackgroundImageFix"/>
<feColorMatrix in="SourceAlpha" type="matrix" values="0 0 0 0 0 0 0 0 0 0 0 0 0 0 0 0 0 0 127 0" result="hardAlpha"/>
<feOffset/>
<feGaussianBlur stdDeviation="5"/>
<feColorMatrix type="matrix" values="0 0 0 0 0 0 0 0 0 0 0 0 0 0 0 0 0 0 0.1 0"/>
<feBlend mode="normal" in2="BackgroundImageFix" result="effect1_dropShadow_4801_3"/>
<feBlend mode="normal" in="SourceGraphic" in2="effect1_dropShadow_4801_3" result="shape"/>
</filter>
</defs>
</svg>
